<?xml version="1.0" standalone="no"?>
<!DOCTYPE svg PUBLIC "-//W3C//DTD SVG 20010904//EN"
 "http://www.w3.org/TR/2001/REC-SVG-20010904/DTD/svg10.dtd">
<svg version="1.0" xmlns="http://www.w3.org/2000/svg"
 width="512.000000pt" height="512.000000pt" viewBox="0 0 512.000000 512.000000"
 preserveAspectRatio="xMidYMid meet">
<metadata>
Created by potrace 1.14, written by Peter Selinger 2001-2017
</metadata>
<g transform="translate(0.000000,512.000000) scale(0.100000,-0.100000)"
fill="#000000" stroke="none">
<path d="M2348 5095 c-2 -2 -28 -5 -58 -7 -30 -2 -61 -7 -67 -11 -8 -5 -13 -3
-13 5 0 10 -2 10 -9 -1 -5 -8 -16 -11 -25 -8 -8 3 -18 2 -21 -2 -3 -5 -15 -7
-27 -3 -11 3 -19 1 -16 -4 4 -5 -10 -9 -30 -9 -21 0 -41 -2 -47 -4 -12 -7 -33
-11 -62 -14 -13 -1 -23 -6 -23 -11 0 -4 -7 -6 -15 -3 -8 4 -17 2 -21 -4 -3 -6
-12 -8 -19 -5 -7 2 -18 -1 -24 -7 -6 -6 -11 -7 -11 -3 0 5 -7 3 -15 -4 -8 -7
-15 -9 -15 -5 0 4 -12 0 -26 -10 -18 -11 -24 -12 -18 -4 6 11 5 12 -8 2 -8 -7
-18 -10 -21 -6 -4 3 -7 1 -7 -6 0 -7 -6 -11 -14 -8 -7 3 -23 -1 -35 -9 -12 -8
-26 -12 -31 -9 -6 3 -10 1 -10 -4 0 -6 -9 -11 -19 -11 -11 0 -23 -5 -26 -11
-4 -6 -13 -8 -20 -5 -7 2 -16 -2 -19 -10 -3 -9 -10 -13 -15 -9 -5 3 -12 1 -16
-5 -3 -5 -15 -10 -26 -10 -13 0 -18 -4 -13 -12 5 -8 2 -9 -9 -5 -10 4 -17 1
-17 -5 0 -6 -3 -8 -6 -5 -4 4 -21 -4 -38 -16 -17 -12 -32 -20 -33 -17 -1 3
-11 -2 -21 -10 -10 -8 -25 -16 -32 -18 -7 -2 -26 -12 -41 -23 -15 -10 -32 -19
-38 -19 -6 0 -11 -5 -11 -11 0 -5 -4 -8 -9 -5 -5 3 -12 -1 -15 -9 -3 -8 -9
-14 -13 -13 -9 3 -65 -32 -75 -47 -4 -5 -8 -7 -8 -3 0 8 -27 -12 -62 -44 -10
-10 -18 -15 -18 -10 -1 4 -10 -4 -20 -17 -11 -13 -20 -20 -20 -16 0 5 -8 -2
-19 -13 -10 -12 -22 -22 -27 -22 -5 0 -16 -9 -24 -20 -8 -11 -18 -20 -22 -20
-4 0 -36 -27 -70 -60 -35 -33 -67 -60 -71 -60 -5 0 -5 -4 -2 -10 3 -5 -1 -10
-9 -10 -8 0 -18 -9 -21 -20 -4 -11 -11 -18 -16 -15 -5 4 -9 2 -9 -2 0 -5 -12
-22 -27 -38 -16 -16 -54 -61 -86 -100 -32 -38 -67 -80 -77 -92 -10 -12 -16
-24 -13 -27 4 -3 1 -6 -5 -6 -7 0 -12 -4 -12 -9 0 -6 -11 -22 -25 -37 -14 -15
-25 -33 -25 -40 0 -8 -4 -14 -10 -14 -5 0 -10 -7 -10 -15 0 -8 -4 -15 -10 -15
-5 0 -10 -7 -10 -15 0 -8 -4 -15 -10 -15 -5 0 -10 -5 -10 -12 0 -6 -8 -20 -18
-31 -12 -15 -13 -19 -2 -13 10 5 9 3 -2 -6 -9 -8 -18 -21 -20 -28 -2 -8 -11
-23 -20 -34 -10 -10 -15 -23 -12 -28 3 -4 0 -8 -6 -8 -6 0 -8 -4 -5 -10 3 -5
2 -10 -3 -10 -9 0 -25 -37 -23 -52 1 -5 -4 -8 -11 -8 -6 0 -8 -3 -5 -7 4 -3
-1 -15 -10 -26 -13 -15 -14 -19 -3 -13 8 4 6 0 -4 -8 -11 -9 -17 -16 -13 -16
4 0 0 -14 -9 -31 -8 -17 -17 -40 -20 -52 -2 -11 -9 -24 -16 -29 -7 -4 -10 -8
-5 -8 4 0 1 -15 -7 -34 -8 -19 -12 -37 -8 -40 3 -3 0 -6 -7 -6 -7 0 -11 -7 -8
-15 4 -8 2 -17 -2 -20 -9 -5 -37 -104 -33 -117 1 -5 -3 -8 -9 -8 -5 0 -8 -4
-4 -9 3 -5 1 -12 -4 -15 -5 -3 -7 -15 -4 -25 3 -10 0 -22 -5 -25 -6 -3 -8 -15
-5 -26 3 -11 1 -20 -5 -20 -6 0 -9 -9 -7 -20 2 -11 1 -20 -3 -20 -4 0 -8 -12
-8 -27 -1 -16 -4 -41 -7 -58 -3 -16 -8 -52 -12 -80 -9 -73 -10 -79 -18 -92 -4
-6 -3 -14 1 -17 10 -6 9 -36 0 -52 -11 -17 -8 -353 3 -360 6 -4 6 -10 -1 -19
-8 -10 -8 -15 1 -20 8 -6 7 -10 -2 -16 -12 -7 -12 -9 0 -9 11 0 11 -3 0 -17
-12 -14 -12 -16 0 -9 9 6 12 5 9 -5 -3 -8 -1 -24 3 -36 6 -15 5 -23 -2 -23 -7
0 -6 -6 2 -17 8 -9 13 -18 12 -20 -2 -1 -3 -4 -2 -5 0 -2 2 -19 4 -38 5 -46 9
-62 19 -79 7 -10 5 -12 -3 -6 -8 4 -7 -4 3 -24 9 -17 12 -31 7 -31 -6 0 -3
-16 5 -35 8 -19 15 -46 16 -60 1 -14 5 -25 8 -25 3 0 7 -12 8 -26 1 -15 7 -33
13 -40 6 -8 9 -14 6 -14 -3 0 3 -26 15 -57 11 -32 20 -64 21 -70 0 -7 4 -13 9
-13 4 0 7 -3 5 -8 -2 -7 25 -77 44 -114 5 -10 9 -25 9 -33 0 -8 5 -15 10 -15
6 0 10 -9 10 -20 0 -11 5 -20 10 -20 6 0 10 -9 10 -20 0 -11 5 -20 11 -20 6 0
9 -6 6 -14 -3 -8 1 -17 9 -20 9 -3 12 -10 9 -16 -3 -5 -1 -10 5 -10 6 0 9 -4
6 -8 -3 -5 3 -18 12 -28 19 -21 36 -54 33 -67 0 -4 6 -10 14 -13 8 -4 15 -12
15 -20 0 -8 9 -22 20 -31 11 -10 20 -23 20 -30 0 -12 17 -36 48 -68 6 -8 12
-17 12 -22 0 -4 10 -20 23 -34 12 -15 33 -41 47 -59 14 -18 31 -39 38 -47 7
-7 11 -13 8 -13 -3 0 2 -8 12 -18 9 -11 20 -17 25 -15 4 2 7 -2 7 -9 1 -7 19
-31 40 -53 22 -22 40 -43 40 -47 0 -5 7 -8 16 -8 8 0 12 -5 9 -10 -3 -6 1 -10
10 -10 9 0 14 -4 11 -8 -3 -5 4 -15 15 -23 11 -8 39 -31 62 -51 23 -21 45 -38
50 -38 4 0 5 -4 2 -10 -3 -5 -1 -10 4 -10 10 0 29 -13 76 -55 13 -11 33 -27
45 -35 12 -8 31 -23 42 -33 12 -9 24 -17 27 -17 3 0 19 -11 35 -25 17 -14 40
-28 53 -31 13 -4 23 -10 23 -14 0 -5 9 -12 20 -15 11 -3 26 -12 33 -18 12 -11
39 -26 137 -78 64 -33 124 -59 137 -59 7 0 13 -4 13 -10 0 -5 7 -10 15 -10 15
0 22 -3 83 -33 21 -11 30 -12 25 -4 -4 7 3 5 17 -4 25 -16 78 -34 93 -31 4 1
7 -2 7 -6 0 -4 8 -8 18 -9 44 -5 82 -16 82 -25 0 -6 7 -7 16 -4 9 3 21 3 27
-1 7 -4 19 -8 27 -9 8 0 22 -4 30 -7 8 -3 31 -8 50 -11 19 -2 35 -5 35 -6 0
-2 65 -11 95 -14 14 -1 30 -4 35 -7 17 -10 103 -13 345 -12 256 1 308 3 329
17 10 7 12 6 6 -4 -6 -10 -4 -11 6 -4 15 9 20 10 84 18 49 6 94 15 120 23 11
4 26 6 33 5 6 -2 12 3 12 10 0 9 3 9 10 -2 7 -11 10 -11 10 -2 0 8 9 12 23 10
12 -2 21 2 20 7 -1 6 12 11 28 12 48 3 59 6 59 14 0 5 7 6 15 3 8 -4 15 -1 15
4 0 6 9 9 20 7 11 -2 20 0 20 6 0 5 3 8 8 7 4 -1 20 4 36 11 16 6 31 9 34 7 2
-3 11 2 19 10 8 8 19 12 24 8 5 -3 12 2 15 10 3 9 10 13 15 10 6 -3 21 2 34
10 14 9 25 14 25 12 0 -8 255 126 258 135 2 5 10 9 17 9 8 0 21 7 29 16 9 8
16 13 16 9 0 -4 7 0 15 7 34 31 43 36 49 31 3 -4 6 -1 6 6 0 7 13 17 30 22 16
6 28 15 25 19 -4 7 17 21 35 24 3 1 15 10 28 21 12 11 32 29 45 40 12 11 24
20 27 20 11 1 276 255 266 255 -3 0 7 13 22 28 50 53 101 112 95 112 -3 0 11
17 31 37 20 21 36 46 36 56 0 10 5 15 10 12 6 -3 10 0 10 9 0 8 4 16 9 18 5 2
11 10 13 18 2 8 13 25 26 38 13 12 20 22 17 22 -4 0 4 14 17 32 12 18 23 39
25 47 1 9 7 17 12 19 6 2 11 8 11 14 0 5 9 21 20 35 11 14 20 34 20 44 0 9 3
19 8 21 9 4 46 79 47 94 0 6 6 18 13 27 7 8 15 26 17 38 3 13 9 25 14 27 6 2
8 9 5 17 -3 7 0 16 5 20 6 3 9 11 6 16 -4 5 -1 9 6 9 7 0 9 3 6 7 -4 3 -2 12
4 20 6 7 8 13 4 13 -4 0 -2 7 5 15 6 8 9 19 5 25 -3 5 -1 10 5 10 6 0 8 5 5
10 -3 6 -2 10 4 10 5 0 8 8 7 18 -2 9 0 19 5 22 4 3 10 17 12 30 2 14 7 32 10
40 4 8 8 26 11 40 2 14 7 32 10 40 3 8 8 31 11 50 3 19 8 46 11 60 3 14 6 34
7 45 1 11 7 23 12 27 6 5 5 8 -4 8 -11 0 -11 3 -1 15 7 8 10 22 6 30 -3 8 -2
15 3 15 10 0 11 26 16 340 2 163 -1 259 -7 268 -7 8 -7 12 1 12 7 0 9 5 5 11
-4 7 -8 25 -10 40 -6 48 -13 81 -18 87 -3 3 -1 11 5 19 6 7 7 13 2 13 -5 0
-10 14 -11 32 -2 17 -8 38 -15 47 -10 12 -9 13 3 6 12 -7 13 -6 3 6 -7 9 -13
30 -15 47 -1 18 -5 32 -8 32 -3 0 -7 10 -8 23 -3 29 -7 48 -16 69 -4 9 -9 22
-10 30 -7 35 -19 74 -26 83 -4 6 -11 25 -15 43 -3 17 -12 32 -18 32 -8 0 -8 3
1 9 11 7 11 11 -2 24 -9 8 -16 22 -16 31 0 8 -5 18 -11 21 -6 4 -8 13 -5 21 3
8 2 14 -2 14 -9 0 -45 78 -45 97 0 7 -4 13 -9 13 -4 0 -8 7 -8 16 0 9 -5 12
-12 8 -7 -4 -8 -3 -4 5 4 6 -2 24 -13 40 -11 15 -18 31 -14 35 3 3 2 6 -3 6
-6 0 -16 16 -24 35 -8 19 -17 35 -22 35 -4 0 -8 5 -8 11 0 6 -9 22 -20 36 -11
14 -17 29 -14 34 3 5 -2 9 -10 9 -9 0 -16 6 -16 13 0 7 -13 28 -30 47 -16 19
-29 41 -30 48 0 6 -5 12 -11 12 -5 0 -7 5 -4 10 3 6 -1 10 -10 10 -9 0 -14 4
-10 9 3 5 -5 17 -17 25 -12 9 -19 16 -14 16 5 0 -1 8 -12 19 -12 10 -22 21
-22 24 0 16 -253 277 -268 277 -5 0 -12 7 -16 15 -3 8 -17 20 -31 27 -14 6
-25 17 -25 24 0 8 -11 16 -25 20 -13 3 -27 15 -30 25 -4 11 -10 17 -15 14 -5
-3 -19 6 -32 20 -12 14 -28 25 -35 25 -7 0 -13 5 -13 10 0 6 -5 10 -11 10 -6
0 -17 6 -24 13 -34 30 -43 35 -49 30 -3 -4 -6 -1 -6 5 0 6 -9 14 -20 17 -11 3
-26 12 -33 18 -7 7 -28 20 -47 31 -137 73 -200 105 -200 99 0 -3 -9 2 -20 12
-11 10 -20 15 -20 11 0 -4 -10 0 -22 8 -12 9 -30 16 -40 16 -10 0 -18 5 -18
10 0 6 -11 10 -25 10 -14 0 -25 4 -25 8 0 5 -6 9 -12 10 -35 3 -54 8 -58 14
-3 4 -15 9 -25 11 -11 1 -26 6 -32 10 -7 5 -21 10 -30 12 -10 2 -45 11 -78 20
-57 16 -68 19 -125 32 -14 3 -35 6 -47 6 -13 1 -23 4 -23 7 0 3 -15 7 -32 8
-47 4 -61 7 -75 15 -8 5 -13 3 -13 -3 0 -6 -5 -8 -12 -3 -7 4 -26 9 -43 11
-47 5 -502 11 -507 7z"/>
</g>
</svg>
